<svg version="1" xmlns="http://www.w3.org/2000/svg" width="200" height="200" viewBox="0 0 150.000000 150.000000"><path d="M45.5 8.3c-7.7 4.6-15 8.9-16.2 9.7-2.2 1.4-2.3 1.9-2.3 19.7 0 10.1.2 18.3.5 18.3.2 0 14.4-8.1 31.6-18.1C76.2 28 90.5 20.1 90.7 20.4c.3.3.8 6.3 1 13.3.2 7 .5 15.3.6 18.3l.2 5.5-14.1 8C70.6 69.9 55.9 78.2 45.7 84L27.1 94.5l-.1 18.7v18.7l9.3 5.4c5 3 12.1 7 15.7 9l6.5 3.6v-18.5c0-10.2.2-18.9.5-19.3.3-.5 2.1-1.8 4-2.9 1.9-1 15.7-8.8 30.5-17.2 14.9-8.3 27.5-15.6 28.2-16.2.9-.7 1.2-6.3 1.3-19.7V37.4l-5.6-3.2c-3.1-1.8-6-3.2-6.5-3.2s-.9-.5-.9-1c0-.6-.4-1-1-1-.5 0-3.1-1.3-5.8-2.9-2.6-1.5-6.8-3.9-9.3-5.3-2.4-1.4-11.1-6.7-19.2-11.7-8.1-5-14.9-9.1-15-9.1-.1 0-6.5 3.8-14.2 8.3z"/></svg>