<svg xmlns="http://www.w3.org/2000/svg" id="Layer_2" data-name="Layer 2" viewBox="0 0 235.29 132.82"><defs><style>.cls-1{fill:#fff;}</style></defs><title>F1iS India Logo</title><path class="cls-1" d="M32.12,153.55H24.33v-4.83h7.79Zm-7.79,26.74v-24.6h7.79v24.6Z" transform="translate(-24.08 -75.32)"></path><path class="cls-1" d="M37.37,180.29v-24.6H52.62q5.37,0,7.79,2.7a10.63,10.63,0,0,1,2.42,7.34v14.56H55V165.53a4.34,4.34,0,0,0-.64-2.69A3,3,0,0,0,52,162h-6.8v18.25Z" transform="translate(-24.08 -75.32)"></path><path class="cls-1" d="M92.84,168.85l-7.38-2.18a13.67,13.67,0,0,1-6.31-3.48,8.07,8.07,0,0,1,.65-11.4q2.72-2.25,7.63-2.25h15.78v6.76H87.39a2.84,2.84,0,0,0-1.85.47,1.42,1.42,0,0,0-.53,1,1.59,1.59,0,0,0,.51,1.21,4.27,4.27,0,0,0,1.66.8l7.5,2.17a19.73,19.73,0,0,1,7.16,3.42,7,7,0,0,1,2.4,5.68,9,9,0,0,1-.72,3.57,7.78,7.78,0,0,1-2.17,2.91,11,11,0,0,1-3.69,2,16.79,16.79,0,0,1-5.23.74H77.92v-6.77H93.66a3,3,0,0,0,2.17-.61,2,2,0,0,0,.62-1.44,1.7,1.7,0,0,0-.76-1.49A11.23,11.23,0,0,0,92.84,168.85Z" transform="translate(-24.08 -75.32)"></path><path class="cls-1" d="M120.06,161.63a4.92,4.92,0,0,0-3.54,1.09,4.34,4.34,0,0,0-1.13,3.3v4.22c0,1.64.37,2.74,1.13,3.28a6,6,0,0,0,3.54.82h9.23v5.95h-9.47q-6.6,0-9.51-2.87a10.59,10.59,0,0,1-2.92-7.92v-3a10.63,10.63,0,0,1,2.92-7.93q2.91-2.9,9.51-2.89h9.47v5.94Z" transform="translate(-24.08 -75.32)"></path><path class="cls-1" d="M133.72,180.29V149.54h7.79v6.15H149c3.58,0,6.17.9,7.79,2.7a10.63,10.63,0,0,1,2.42,7.34v14.56h-7.79V165.53a4.34,4.34,0,0,0-.64-2.69,3,3,0,0,0-2.44-.8h-6.8v18.25Z" transform="translate(-24.08 -75.32)"></path><path class="cls-1" d="M189.85,166.51v3a11,11,0,0,1-3.1,8.18q-3.09,3.06-8.84,3.06H175q-5.73,0-8.85-3.06a10.91,10.91,0,0,1-3.12-8.18v-3a10.93,10.93,0,0,1,3.12-8.18q3.12-3,8.85-3.05h2.87q5.75,0,8.84,3.05A11,11,0,0,1,189.85,166.51Zm-8-.65a5.86,5.86,0,0,0-.88-3.55,3.7,3.7,0,0,0-3.14-1.17h-2.7a3.76,3.76,0,0,0-3.16,1.17,5.78,5.78,0,0,0-.9,3.55v4.22a5.87,5.87,0,0,0,.9,3.59,3.78,3.78,0,0,0,3.16,1.16h2.7a3.73,3.73,0,0,0,3.14-1.16,6,6,0,0,0,.88-3.59Z" transform="translate(-24.08 -75.32)"></path><path class="cls-1" d="M219.65,166.51v3a11,11,0,0,1-3.09,8.18c-2.07,2-5,3.06-8.84,3.06h-2.87q-5.74,0-8.86-3.06a10.94,10.94,0,0,1-3.11-8.18v-3a11,11,0,0,1,3.11-8.18q3.12-3,8.86-3.05h2.87c3.83,0,6.77,1,8.84,3.05A11,11,0,0,1,219.65,166.51Zm-8-.65a5.93,5.93,0,0,0-.88-3.55,3.71,3.71,0,0,0-3.14-1.17h-2.71a3.75,3.75,0,0,0-3.15,1.17,5.71,5.71,0,0,0-.91,3.55v4.22a5.8,5.8,0,0,0,.91,3.59,3.77,3.77,0,0,0,3.15,1.16h2.71a3.74,3.74,0,0,0,3.14-1.16,6,6,0,0,0,.88-3.59Z" transform="translate(-24.08 -75.32)"></path><path class="cls-1" d="M224,149.54h7.79v30.75H224Z" transform="translate(-24.08 -75.32)"></path><path class="cls-1" d="M250.61,171.68l-6.69-1.31a11.24,11.24,0,0,1-5.63-2.59,6.45,6.45,0,0,1-1.95-4.92,7,7,0,0,1,.55-2.74,6.06,6.06,0,0,1,1.72-2.3,8.5,8.5,0,0,1,3-1.56,14.5,14.5,0,0,1,4.32-.57h12.22v5.94H245.32a2.54,2.54,0,0,0-1.64.37,1.07,1.07,0,0,0-.41.82,1.15,1.15,0,0,0,.37.86,2.28,2.28,0,0,0,1.27.53L251,165.4c3,.61,5.15,1.5,6.45,2.69a6.11,6.11,0,0,1,1.95,4.73,6.66,6.66,0,0,1-2.52,5.4q-2.52,2.07-7.65,2.07H237.16v-5.95h13.36a2.64,2.64,0,0,0,1.71-.37,1.23,1.23,0,0,0,.39-.94,1,1,0,0,0-.56-.9A5.29,5.29,0,0,0,250.61,171.68Z" transform="translate(-24.08 -75.32)"></path><path class="cls-1" d="M24.5,208.14v-15h2.3v15Z" transform="translate(-24.08 -75.32)"></path><path class="cls-1" d="M30.4,208.14v-12h6.76a4.39,4.39,0,0,1,3.3,1.1,4.51,4.51,0,0,1,1,3.2v7.7H39.3V200.2a2.27,2.27,0,0,0-.46-1.62,2.19,2.19,0,0,0-1.52-.44H32.6v10Z" transform="translate(-24.08 -75.32)"></path><path class="cls-1" d="M56,193.14v15H49.34a4.82,4.82,0,0,1-3.68-1.34A5.39,5.39,0,0,1,44.39,203v-1.64a5.42,5.42,0,0,1,1.27-3.84,4.86,4.86,0,0,1,3.68-1.34h4.5v-3Zm-6.5,13.1h4.31V198H49.53a2.87,2.87,0,0,0-2.19.69A3.32,3.32,0,0,0,46.7,201v2.22a3.34,3.34,0,0,0,.64,2.31A2.87,2.87,0,0,0,49.53,206.24Z" transform="translate(-24.08 -75.32)"></path><path class="cls-1" d="M61.64,195.1H59.43v-2h2.21Zm-2.21,13v-12h2.21v12Z" transform="translate(-24.08 -75.32)"></path><path class="cls-1" d="M75.49,200.48v7.66H68.1a4.48,4.48,0,0,1-2.69-.7,2.68,2.68,0,0,1-.27-3.89,15.83,15.83,0,0,1,2-1.69L72.18,198H64.57v-1.9H71a4.58,4.58,0,0,1,3.42,1.18A4.39,4.39,0,0,1,75.49,200.48ZM68,206.14h5.3V199.6l-5.38,4.08c-.37.28-.66.52-.88.71a1.07,1.07,0,0,0-.32.81.75.75,0,0,0,.39.72A1.7,1.7,0,0,0,68,206.14Z" transform="translate(-24.08 -75.32)"></path><path class="cls-1" d="M199.56,133.73,258,75.32H221.52l-58.37,58.36Z" transform="translate(-24.08 -75.32)"></path><path class="cls-1" d="M24.08,133.73H57.51l30.25-29.28a27.75,27.75,0,0,1,19.56-6.9h87.37L216.9,75.33H101.07A49.92,49.92,0,0,0,72.5,86.19Z" transform="translate(-24.08 -75.32)"></path><path class="cls-1" d="M191.26,100.77,171,121.21l-57.77.11a13.93,13.93,0,0,0-5.37.63,13.68,13.68,0,0,0-4.39,2.4L94,133.73H63.3l26.34-26.37a26.68,26.68,0,0,1,17.94-6.59Z" transform="translate(-24.08 -75.32)"></path><polygon class="cls-1" points="190.12 51.05 190.12 52.24 192.47 52.24 192.47 58.52 193.88 58.52 193.88 52.29 196.19 52.29 196.19 51.05 190.12 51.05"></polygon><path class="cls-1" d="M221,133.84h1.42V128.7l1.86,5.14h1.17l1.81-5.14v5.14h1.46v-7.47h-1.89q-1,2.94-2,5.87l-2-5.87H221Z" transform="translate(-24.08 -75.32)"></path></svg>